<?xml version="1.0" standalone="no"?>
<!DOCTYPE svg PUBLIC "-//W3C//DTD SVG 20010904//EN"
 "http://www.w3.org/TR/2001/REC-SVG-20010904/DTD/svg10.dtd">
<svg version="1.0" xmlns="http://www.w3.org/2000/svg"
 width="2816.000000pt" height="1040.000000pt" viewBox="0 0 2816.000000 1040.000000"
 preserveAspectRatio="xMidYMid meet">

<g transform="translate(0.000000,1040.000000) scale(0.100000,-0.100000)"
fill="#000000" stroke="none">
<path d="M8085 10009 c-1370 -45 -2545 -264 -3565 -664 -828 -325 -1375 -666
-1856 -1156 -470 -481 -717 -955 -811 -1559 -26 -164 -25 -616 0 -780 61 -386
163 -703 342 -1055 261 -512 530 -869 1042 -1380 164 -164 173 -175 144 -175
-36 0 -49 11 -431 351 -473 420 -666 620 -885 914 -158 212 -172 233 -375 555
-320 506 -422 757 -492 1210 -30 198 -33 664 -5 835 61 367 177 674 375 994
43 67 181 260 202 281 3 3 23 28 45 55 72 90 278 295 385 385 213 177 394 299
690 468 122 69 150 92 150 120 0 46 -19 61 -85 68 -53 6 -80 0 -220 -40 -432
-127 -931 -339 -1253 -533 -118 -71 -271 -173 -327 -218 -27 -22 -75 -59 -105
-81 -132 -100 -385 -353 -516 -515 -436 -544 -611 -1219 -493 -1909 76 -450
273 -901 632 -1455 110 -170 250 -357 482 -644 241 -299 721 -773 1080 -1067
648 -531 1321 -931 2300 -1366 1406 -625 2898 -1078 4495 -1362 767 -137 1402
-211 2200 -258 285 -17 1259 -17 1540 0 987 58 1820 183 2705 404 601 150 845
237 1450 518 121 56 299 137 395 181 96 43 186 85 200 92 23 12 99 136 100
164 0 7 -35 23 -77 37 -67 20 -81 22 -103 11 -24 -12 -629 -190 -1225 -360
-172 -49 -318 -85 -344 -85 -38 0 -48 5 -75 37 -87 102 -123 135 -175 160 -48
24 -68 28 -141 27 -116 0 -300 -46 -341 -85 -38 -35 -37 -63 5 -166 32 -80 32
-82 12 -87 -35 -10 -1065 -54 -1794 -77 l-363 -11 -25 23 c-14 13 -35 39 -46
59 -12 19 -31 47 -43 62 -12 14 -40 59 -63 100 -56 102 -83 124 -162 137 -104
17 -361 14 -387 -4 -40 -28 -47 -74 -25 -182 34 -168 36 -183 18 -183 -14 0
-304 46 -881 140 -99 16 -281 45 -405 65 -124 20 -360 58 -525 85 -165 27
-351 57 -413 66 -92 15 -112 21 -109 34 3 8 21 71 41 140 21 69 40 157 43 195
5 66 4 73 -21 102 -29 34 -88 60 -201 87 -38 10 -96 27 -127 38 -133 48 -219
-15 -274 -201 -33 -112 -53 -152 -86 -171 -32 -17 -17 -21 -383 89 -292 88
-509 160 -737 247 -95 36 -231 87 -303 114 -71 27 -202 76 -290 110 -88 33
-204 77 -257 97 -54 20 -98 39 -97 42 0 4 58 56 127 117 111 97 132 120 160
178 l32 66 -37 50 c-42 57 -132 119 -225 158 -48 20 -81 26 -138 26 -108 1
-166 -31 -280 -152 -48 -51 -105 -102 -126 -112 -48 -25 -117 -25 -169 -1 -22
10 -166 99 -320 198 -154 98 -331 210 -393 248 -62 39 -130 81 -152 95 -22 14
-90 56 -152 94 -177 109 -368 247 -368 264 0 4 28 18 63 31 164 62 404 165
430 183 40 29 59 76 47 119 -21 73 -184 214 -290 249 -57 19 -71 20 -123 10
-32 -6 -91 -26 -130 -44 -285 -132 -406 -153 -515 -91 -66 39 -185 163 -335
350 -122 153 -422 564 -415 570 2 1 149 24 328 50 179 26 342 51 363 56 85 22
98 80 45 207 -40 97 -66 140 -112 180 -59 51 -80 52 -266 13 -133 -28 -339
-53 -442 -55 -116 -1 -131 10 -181 138 -77 196 -134 475 -138 676 l-2 95 64 3
c35 2 201 -2 369 -9 168 -7 323 -12 344 -11 82 4 123 90 114 243 -4 83 -20
123 -61 153 -28 20 -41 21 -406 24 l-378 3 -12 39 c-11 37 -8 48 73 252 98
248 169 398 205 435 14 14 46 35 70 46 58 25 94 21 341 -43 111 -29 230 -53
277 -57 78 -6 84 -4 116 20 33 25 162 182 162 196 0 15 -86 109 -124 135 -46
32 -179 74 -355 112 -68 14 -128 29 -134 33 -5 3 -13 20 -16 37 -7 31 -4 34
166 168 95 75 209 165 253 200 203 161 309 236 334 236 30 0 263 -108 747
-345 193 -95 368 -178 389 -185 59 -19 130 -7 189 34 28 20 108 91 178 158
l127 123 -112 98 c-133 117 -227 181 -607 410 -178 108 -170 101 -140 126 14
12 57 38 95 58 61 32 79 37 140 37 91 1 148 -29 229 -115 252 -272 376 -361
564 -405 99 -24 271 -14 378 20 186 60 373 177 492 308 l23 25 -38 60 c-62 98
-81 117 -406 393 -52 43 -73 68 -67 75 5 6 34 23 63 38 151 74 262 53 387 -72
36 -37 85 -95 107 -131 81 -128 127 -181 193 -224 130 -85 126 -85 506 9 445
110 551 141 626 186 l67 39 -25 68 c-14 37 -50 131 -80 209 -30 78 -54 148
-54 157 0 21 88 46 159 46 133 -1 208 -84 260 -285 22 -86 45 -130 84 -159 39
-29 107 -27 387 12 214 30 522 64 695 77 123 9 172 23 209 60 44 44 61 106 53
200 l-7 75 154 0 153 0 -1 -97 c-1 -112 10 -145 62 -180 19 -12 52 -24 75 -27
23 -2 267 -10 542 -16 720 -15 1244 -37 1432 -60 224 -28 253 -27 284 8 54 59
53 56 19 120 -24 46 -40 63 -68 75 -58 24 -583 171 -889 248 -1509 382 -2963
546 -4418 498z"/>
<path d="M19561 7468 c-33 -7 -58 -23 -96 -62 -43 -44 -55 -67 -82 -147 -18
-52 -46 -152 -63 -222 -25 -109 -199 -719 -260 -912 -10 -33 -66 -222 -124
-420 -58 -198 -159 -547 -226 -775 -103 -352 -122 -429 -127 -506 -8 -124 12
-187 77 -248 86 -80 -22 -75 1540 -76 1079 -1 1393 1 1411 11 68 36 83 74 224
560 69 239 141 486 160 549 45 152 149 507 220 750 31 107 67 231 80 275 13
44 67 229 119 410 53 182 112 382 131 445 19 63 46 162 60 220 14 58 28 113
31 123 5 16 -22 17 -461 17 -506 0 -492 1 -547 -57 -39 -40 -46 -62 -162 -464
-57 -200 -120 -418 -139 -484 -20 -66 -63 -214 -97 -330 -215 -737 -318 -1070
-344 -1116 -48 -86 -8 -81 -594 -87 -286 -3 -526 -2 -535 1 -11 4 15 105 140
534 85 290 183 629 219 753 36 124 108 369 159 545 51 176 117 401 145 500 29
99 55 185 57 192 3 8 -96 13 -379 17 -211 3 -408 8 -438 10 -30 3 -75 0 -99
-6z"/>
<path d="M6351 7449 c-14 -5 -43 -26 -66 -47 -23 -20 -57 -50 -76 -66 -64 -54
-152 -131 -183 -159 -17 -16 -76 -68 -131 -115 -55 -48 -102 -89 -105 -92 -3
-3 -61 -54 -130 -115 -188 -165 -180 -156 -173 -187 l5 -28 675 0 c638 0 674
-1 669 -17 -3 -10 -51 -173 -106 -363 -56 -190 -141 -482 -190 -650 -49 -168
-161 -552 -249 -855 -88 -302 -167 -572 -175 -600 -9 -27 -16 -51 -16 -52 0
-2 218 -3 485 -3 l484 0 35 30 c48 42 59 71 137 348 72 256 90 318 309 1062
72 245 151 531 176 635 50 214 67 270 100 337 61 122 146 153 369 135 61 -4
158 -7 217 -5 97 3 109 5 134 28 37 35 148 183 347 465 93 132 178 251 189
264 l19 25 -28 15 c-25 14 -177 16 -1363 18 -849 1 -1344 -2 -1359 -8z"/>
<path d="M9424 7445 c-89 -19 -159 -59 -226 -127 -91 -93 -141 -207 -233 -533
-87 -310 -151 -531 -312 -1085 -201 -691 -241 -827 -348 -1198 -58 -200 -105
-367 -105 -371 0 -30 65 -31 1463 -31 777 1 1469 5 1538 9 115 7 130 11 188
41 150 80 212 195 336 620 47 162 133 457 192 655 58 198 125 425 148 505 23
80 124 420 223 755 100 336 188 639 196 675 8 36 18 73 21 83 7 16 -69 17
-1506 16 -1218 0 -1526 -3 -1575 -14z m1811 -822 c-3 -10 -15 -47 -25 -83 -66
-238 -399 -1367 -437 -1484 -43 -131 -11 -122 -418 -129 -581 -11 -895 -9
-895 6 0 7 20 80 44 163 24 82 85 291 136 464 79 272 188 642 277 939 16 57
34 93 53 113 l28 28 622 0 c588 0 622 -1 615 -17z"/>
<path d="M12779 7451 c-46 -15 -77 -41 -92 -79 -21 -52 -217 -709 -217 -726 0
-3 373 -6 829 -6 l829 0 -29 -97 c-17 -54 -43 -152 -60 -218 -16 -65 -39 -134
-52 -152 -44 -65 -19 -63 -727 -63 -607 0 -642 -1 -635 -17 3 -10 49 -169 101
-353 170 -600 394 -1383 425 -1482 24 -79 36 -102 64 -127 l36 -31 424 0 c291
0 425 3 425 11 0 13 -6 35 -304 1086 -36 128 -66 236 -66 242 0 6 156 11 413
14 349 3 420 6 461 20 104 35 197 115 258 222 46 81 58 114 113 305 26 91 101
347 166 570 66 223 127 436 135 473 18 88 18 190 -1 254 -18 59 -78 120 -142
143 -31 11 -244 14 -1183 16 -630 2 -1157 -1 -1171 -5z"/>
<path d="M15902 7449 c-76 -13 -168 -63 -232 -128 -90 -89 -135 -194 -230
-531 -45 -157 -112 -393 -150 -525 -81 -282 -327 -1129 -375 -1295 -128 -438
-197 -680 -218 -763 l-25 -97 1235 0 c1171 0 1234 1 1229 18 -3 9 -44 177 -91
372 -48 195 -91 362 -96 371 -27 51 -5 49 -530 49 -356 0 -489 3 -489 11 0 10
108 386 185 644 13 44 70 235 125 425 164 559 168 570 207 608 l34 32 615 0
615 0 -7 -22 c-4 -13 -17 -57 -29 -98 -12 -41 -50 -166 -84 -278 -34 -112 -84
-292 -111 -400 -32 -126 -62 -223 -85 -268 -60 -122 -140 -173 -250 -159 -42
5 -54 3 -68 -13 -16 -17 -9 -51 129 -602 80 -320 151 -595 159 -609 18 -35 45
-65 72 -79 15 -9 153 -12 482 -12 254 0 461 1 461 3 0 26 -68 341 -90 418 -39
136 -51 253 -40 367 12 116 29 183 100 415 79 259 226 749 293 982 31 105 108
368 172 585 64 217 125 432 136 478 11 46 22 89 26 97 4 13 -186 15 -1508 14
-833 -1 -1538 -5 -1567 -10z"/>
<path d="M23438 7450 l-327 -5 -31 -30 c-66 -63 -58 -39 -295 -845 -73 -250
-215 -736 -315 -1080 -100 -344 -230 -791 -290 -994 l-108 -368 34 -14 c28
-12 259 -14 1450 -14 1248 0 1420 2 1447 15 32 15 95 107 372 535 48 74 105
161 126 194 22 32 39 62 39 67 0 5 -467 9 -1099 9 l-1099 0 23 83 c12 45 32
130 45 189 29 136 66 202 134 237 l48 24 866 1 c857 1 868 1 912 22 25 11 50
27 56 35 21 26 184 558 184 599 0 7 -321 10 -960 10 -528 0 -960 4 -960 8 0 5
9 34 20 66 10 31 31 105 45 164 43 179 72 234 142 267 35 17 88 18 909 16 619
-2 884 1 913 9 23 6 52 22 64 36 12 13 131 188 263 387 176 263 239 365 232
375 -8 9 -271 12 -1262 10 -688 -1 -1398 -5 -1578 -8z"/>
<path d="M14380 3659 c-25 -4 -198 -8 -385 -8 -278 -1 -389 -6 -610 -26 -148
-14 -288 -25 -310 -25 -90 0 -5 -20 240 -55 143 -21 261 -39 263 -40 5 -5 -79
-14 -341 -36 -141 -13 -254 -26 -250 -29 5 -4 129 -24 277 -45 148 -22 265
-40 260 -42 -10 -3 -558 -53 -595 -54 l-24 -1 25 -8 c14 -5 142 -26 284 -46
142 -21 255 -39 250 -41 -5 -1 -144 -14 -309 -28 -165 -15 -302 -28 -304 -30
-4 -5 12 -7 309 -51 135 -20 246 -37 247 -38 2 -2 -113 -13 -255 -25 -291 -25
-364 -32 -359 -37 1 -2 124 -21 271 -43 148 -22 270 -42 272 -44 2 -2 -119
-14 -269 -26 -150 -13 -288 -27 -307 -30 -38 -8 -28 -10 348 -65 90 -14 166
-26 168 -29 2 -2 -128 -20 -289 -41 -160 -21 -303 -41 -316 -45 -15 -4 88 -18
260 -35 156 -15 284 -28 286 -29 1 -2 -132 -20 -295 -40 -163 -21 -305 -42
-316 -46 -10 -4 95 -17 234 -30 139 -13 267 -27 283 -30 20 -4 -77 -21 -276
-46 -169 -22 -307 -42 -307 -45 0 -3 114 -17 253 -30 138 -13 260 -26 270 -29
9 -4 -120 -24 -288 -46 -167 -22 -301 -42 -297 -46 4 -3 122 -16 262 -29 140
-12 258 -26 263 -29 4 -4 -130 -25 -297 -46 -168 -22 -303 -41 -301 -43 2 -2
106 -17 232 -32 125 -16 264 -36 308 -45 47 -9 135 -15 215 -15 l135 0 23 58
c13 31 62 150 109 263 l85 206 148 7 c170 8 195 3 183 -42 -3 -15 -48 -130
-100 -256 -51 -127 -93 -231 -93 -233 0 -2 64 -3 143 -3 l143 0 10 29 11 28
104 -14 c57 -7 138 -20 180 -28 61 -12 170 -15 536 -15 l461 0 6 25 c8 31 8
31 188 3 104 -17 186 -23 303 -23 l159 0 148 355 148 355 0 -357 0 -358 171 0
170 0 20 45 c17 38 24 44 42 40 12 -3 132 -23 267 -45 213 -35 266 -40 406
-40 l161 0 12 27 c7 16 91 217 186 448 223 541 302 731 315 755 10 18 24 20
162 22 l151 3 83 200 c46 110 84 203 84 208 0 4 -204 7 -453 7 -393 0 -529 -5
-709 -24 -28 -3 -38 0 -38 10 0 12 -26 14 -157 12 l-156 -3 -163 -395 c-90
-217 -168 -404 -174 -415 -7 -14 -9 13 -5 100 2 66 8 254 11 418 l7 297 -174
0 c-96 0 -243 -5 -328 -12 -119 -9 -156 -9 -159 0 -7 21 -941 15 -1187 -7
-173 -15 -201 -16 -209 -3 -9 15 -68 43 -88 41 -7 -1 -33 -5 -58 -10z m352
-131 c81 -12 146 -23 145 -25 -6 -5 -330 -34 -334 -29 -3 3 -2 21 1 41 8 42
-1 41 188 13z m1323 -8 c61 -10 101 -19 90 -20 -11 -1 -80 -7 -152 -13 -139
-13 -138 -13 -127 31 8 28 35 28 189 2z m1270 3 c137 -20 127 -25 -67 -38
l-107 -8 12 32 c13 36 8 36 162 14z m-2615 -150 c69 -9 118 -19 110 -20 -25
-5 -324 -32 -327 -30 -1 1 4 19 10 40 11 37 14 38 47 33 19 -3 91 -13 160 -23z
m1265 1 c118 -17 126 -19 85 -25 -93 -14 -273 -22 -267 -12 4 6 11 22 17 38 6
15 16 25 23 22 6 -2 71 -13 142 -23z m1305 -3 l115 -17 -65 -7 c-36 -4 -104
-10 -152 -13 l-87 -7 12 32 c14 37 16 37 177 12z m62 -142 c125 -13 227 -24
225 -25 -5 -5 -539 -55 -543 -51 -2 2 6 27 18 56 19 48 24 52 47 48 14 -3 128
-15 253 -28z m-2675 -9 c59 -10 95 -18 78 -19 -16 -1 -93 -8 -170 -15 -77 -8
-141 -13 -143 -11 -1 1 5 19 13 39 l16 38 49 -7 c27 -4 98 -15 157 -25z m1253
4 c69 -10 118 -20 110 -21 -21 -4 -573 -53 -595 -53 -55 0 21 -15 261 -50 148
-22 273 -41 278 -43 5 -2 -110 -13 -255 -26 -297 -26 -361 -32 -356 -37 2 -2
124 -22 272 -44 147 -22 269 -41 271 -43 2 -1 -115 -13 -259 -25 -268 -23
-350 -32 -345 -37 2 -2 127 -22 278 -44 150 -23 275 -43 276 -44 2 -1 -131
-20 -294 -41 -163 -22 -308 -42 -321 -46 -14 -3 100 -18 259 -34 157 -15 286
-28 287 -30 1 -1 -131 -19 -295 -40 -163 -20 -305 -41 -315 -45 -11 -3 93 -17
230 -29 349 -33 346 -32 158 -59 -132 -20 -217 -25 -479 -30 -367 -6 -330 -21
-271 114 l34 78 154 3 153 2 34 83 c18 45 57 139 87 208 29 70 53 130 53 133
0 3 -67 6 -150 6 -82 0 -150 2 -150 4 0 2 18 46 39 97 l39 94 318 3 c193 1
322 6 328 12 6 6 17 8 26 6 8 -2 71 -12 140 -22z m-1782 -26 c4 -33 -54 -175
-84 -205 -22 -22 -30 -23 -184 -23 -99 0 -160 4 -160 10 0 8 25 71 85 213 l15
37 163 -2 162 -3 3 -27z m3157 -104 c121 -20 221 -37 222 -38 1 -1 -122 -14
-274 -29 -152 -15 -278 -25 -281 -22 -2 2 8 34 23 70 27 63 29 65 59 60 17 -3
130 -21 251 -41z m-2734 -14 c74 -11 139 -22 144 -24 6 -1 -66 -9 -160 -17
-93 -8 -171 -11 -173 -7 -6 12 28 68 42 68 7 0 73 -9 147 -20z m2640 -130
c227 -37 285 -50 228 -50 -27 0 -417 -36 -492 -46 l-47 -6 21 49 c11 26 25 58
30 71 5 12 11 22 13 22 3 0 114 -18 247 -40z m-2700 -20 c73 -12 135 -22 136
-24 2 -1 -69 -9 -157 -16 -88 -7 -163 -11 -165 -8 -10 10 20 68 36 68 9 0 76
-9 150 -20z m2649 -130 c131 -22 242 -40 247 -41 4 -1 -122 -20 -282 -44 -159
-23 -291 -41 -293 -40 -1 1 7 24 19 51 11 27 27 64 34 82 8 17 19 32 25 32 6
0 119 -18 250 -40z m-2705 -20 c76 -12 140 -22 142 -23 6 -7 -368 -49 -382
-43 -26 10 50 97 79 91 11 -2 84 -14 161 -25z m2639 -145 c126 -14 233 -25
240 -26 6 -1 -117 -20 -274 -43 -157 -24 -286 -42 -288 -41 -2 2 9 32 24 69
21 53 30 66 48 66 12 0 124 -11 250 -25z m-2692 -15 c54 -6 105 -10 115 -11
10 -1 -58 -12 -151 -25 -94 -13 -172 -22 -174 -19 -2 2 1 20 8 40 12 35 12 35
58 30 26 -3 91 -10 144 -15z m2637 -135 c123 -13 225 -26 227 -28 2 -1 -119
-20 -269 -41 -150 -21 -276 -42 -280 -46 -5 -4 20 -10 55 -13 189 -16 395 -39
411 -45 11 -5 -94 -24 -253 -46 -149 -21 -273 -36 -276 -33 -3 2 21 66 52 141
53 127 59 136 83 136 15 0 128 -11 250 -25z m-2728 -10 c78 -8 144 -16 145
-18 2 -2 -63 -11 -144 -21 -81 -10 -157 -20 -169 -23 -22 -5 -22 -5 -6 36 9
23 19 41 23 41 5 0 72 -7 151 -15z m-95 -145 c194 -18 195 -21 14 -46 -91 -12
-166 -21 -166 -21 -5 5 29 77 35 77 4 0 57 -5 117 -10z m1329 -6 c50 -4 96
-10 103 -14 7 -3 -50 -14 -128 -24 -78 -10 -144 -15 -147 -12 -3 3 0 19 7 37
12 27 17 30 44 25 17 -3 72 -8 121 -12z m1508 -150 c42 -4 77 -10 77 -13 0 -9
-530 -85 -537 -77 -3 3 2 24 12 48 9 24 21 52 25 64 l8 21 169 -18 c92 -10
203 -21 246 -25z m-2873 5 c69 -7 128 -15 133 -19 6 -5 -303 -50 -311 -45 -7
5 30 75 41 75 6 0 68 -5 137 -11z m1308 -5 c51 -4 94 -10 97 -14 4 -6 -274
-45 -280 -38 -1 2 4 18 12 37 13 30 17 33 46 28 18 -4 74 -9 125 -13z"/>
<path d="M24855 3660 c-22 -5 -194 -9 -382 -9 -280 -1 -391 -5 -619 -26 -152
-14 -286 -25 -297 -25 -15 0 -18 5 -13 25 l6 25 -188 0 c-115 0 -301 -10 -482
-25 -162 -14 -298 -25 -303 -25 -4 0 -3 9 3 19 5 11 10 22 10 25 0 3 -168 6
-372 5 -308 0 -437 -5 -738 -28 -201 -15 -358 -30 -350 -34 8 -3 118 -17 244
-31 127 -15 232 -29 234 -31 13 -12 -68 -26 -297 -51 -145 -16 -245 -31 -235
-35 11 -4 80 -15 154 -23 235 -28 292 -38 282 -48 -9 -9 -438 -67 -501 -68
-62 -1 5 -14 205 -41 119 -16 219 -31 222 -34 12 -12 -63 -26 -273 -50 -197
-23 -268 -34 -229 -35 39 -2 426 -59 431 -64 4 -3 4 -9 0 -12 -5 -5 -443 -63
-486 -64 -44 -1 16 -12 189 -35 264 -34 254 -32 227 -68 -10 -15 -48 -20 -246
-32 -129 -9 -237 -18 -240 -20 -2 -3 4 -5 15 -6 70 -3 418 -56 421 -64 2 -6
-2 -18 -9 -28 -10 -13 -64 -23 -257 -46 -134 -17 -245 -32 -247 -34 -2 -2 87
-9 199 -16 257 -15 259 -16 245 -45 -11 -26 -18 -27 -328 -62 -85 -9 -158 -20
-163 -24 -4 -3 88 -19 205 -34 117 -16 215 -30 217 -32 16 -15 -41 -26 -251
-51 -131 -15 -238 -30 -238 -33 0 -3 96 -19 213 -34 116 -15 214 -30 216 -32
15 -14 -40 -25 -256 -50 -133 -16 -239 -31 -235 -35 4 -3 108 -18 232 -33 124
-15 227 -30 229 -32 15 -14 -41 -24 -273 -50 -149 -16 -251 -31 -240 -35 11
-4 174 -26 364 -48 340 -41 350 -41 687 -41 313 0 343 1 352 17 8 16 16 16 93
3 45 -7 176 -15 289 -17 l207 -4 63 120 63 121 133 0 c107 0 133 -3 133 -14 0
-13 -25 -155 -35 -203 l-5 -23 159 0 c158 0 160 0 163 23 3 20 8 22 53 19 28
-1 100 -12 162 -22 73 -13 158 -20 242 -20 l130 0 15 28 c7 15 57 133 110 263
l97 236 155 7 c171 8 189 4 177 -43 -3 -14 -48 -129 -100 -255 -51 -127 -93
-231 -93 -233 0 -2 64 -2 142 -1 l142 3 32 75 c205 483 228 545 230 608 2 54
7 67 33 97 49 56 74 107 179 361 106 255 148 393 137 450 -13 72 -72 103 -160
84z m-2042 -121 c115 -19 205 -35 200 -36 -9 -3 -497 -51 -499 -49 0 1 10 29
24 64 21 55 27 63 46 59 11 -3 115 -20 229 -38z m1037 -4 c118 -18 211 -33
205 -34 -81 -10 -541 -48 -544 -45 -2 2 2 31 9 64 l13 61 51 -7 c28 -3 148
-21 266 -39z m-75 -147 c127 -18 221 -34 210 -36 -11 -1 -131 -13 -267 -25
l-247 -23 5 26 c22 96 25 102 47 97 12 -3 126 -20 252 -39z m-1042 1 c108 -18
196 -33 195 -35 -5 -4 -469 -46 -472 -43 -2 2 7 28 20 57 16 34 30 52 41 52
10 0 107 -14 216 -31z m982 -149 c212 -31 249 -38 207 -39 -12 -1 -124 -10
-248 -22 -124 -11 -227 -19 -230 -17 -2 3 1 30 7 61 10 50 14 56 33 52 11 -3
116 -19 231 -35z m-1035 -7 c96 -15 166 -29 155 -30 -37 -5 -582 -53 -600 -53
-52 0 16 -14 246 -50 140 -22 258 -42 263 -43 5 -2 -112 -14 -260 -26 -402
-35 -393 -31 -154 -70 382 -60 377 -51 40 -82 -162 -16 -304 -29 -315 -29 -37
-3 -1 -10 259 -50 143 -22 261 -41 262 -43 2 -1 -133 -20 -299 -41 -166 -22
-310 -42 -321 -46 -10 -3 87 -17 215 -30 351 -34 350 -30 8 -74 -167 -22 -310
-42 -317 -46 -7 -3 95 -16 225 -29 131 -13 251 -26 267 -30 20 -5 -38 -15
-185 -34 -181 -23 -251 -27 -455 -27 -271 0 -281 2 -272 61 5 29 77 209 247
616 36 87 51 110 88 134 26 17 53 19 336 19 306 0 309 0 314 21 5 18 11 20 42
16 20 -3 115 -18 211 -34z m1928 -35 c4 -33 -54 -175 -84 -205 -22 -22 -30
-23 -184 -23 -88 0 -160 4 -160 9 0 4 19 55 43 112 24 57 46 112 50 122 6 16
21 17 169 15 l163 -3 3 -27z m-945 -108 c111 -17 206 -32 211 -33 5 -2 -83
-11 -195 -20 -112 -10 -221 -20 -242 -23 -28 -4 -36 -3 -33 8 3 7 10 32 16 56
6 25 17 42 25 42 8 0 106 -14 218 -30z m-58 -150 c110 -17 200 -32 202 -33 1
-2 -94 -12 -212 -22 -119 -10 -217 -16 -219 -14 -6 6 16 99 24 99 4 0 96 -14
205 -30z m-601 -195 c-8 -49 -18 -93 -20 -97 -3 -4 -20 -8 -39 -8 l-33 0 51
99 c29 55 53 98 54 97 2 -1 -4 -42 -13 -91z m578 40 c92 -14 170 -25 175 -26
9 -1 -394 -58 -415 -59 -8 0 -11 7 -8 18 3 9 10 36 16 59 10 39 13 42 38 37
15 -2 102 -16 194 -29z m-56 -161 c82 -8 150 -17 152 -18 1 -2 -23 -6 -55 -10
-32 -4 -118 -15 -191 -25 l-132 -18 6 36 c11 61 -2 59 220 35z m-57 -149 c79
-8 145 -16 147 -18 2 -1 -74 -13 -168 -25 -94 -12 -173 -20 -175 -18 -2 2 -1
20 2 40 8 42 -4 41 194 21z m-1189 -165 c3 -1 -51 -10 -120 -20 -69 -10 -127
-17 -129 -14 -2 2 2 16 8 32 l12 28 112 -12 c62 -7 114 -13 117 -14z m1102 20
c187 -19 188 -21 13 -45 -88 -12 -161 -21 -162 -20 -9 5 21 75 32 75 8 0 61
-5 117 -10z m6 -156 c45 -4 85 -10 87 -14 4 -7 -265 -44 -272 -37 -2 2 0 19 3
36 7 33 7 33 53 27 25 -3 83 -9 129 -12z m-1205 -13 c4 -4 -40 -13 -99 -20
-58 -7 -108 -11 -111 -8 -2 3 -2 15 2 27 7 22 10 22 104 15 53 -4 99 -10 104
-14z"/>
<path d="M19483 3622 c-167 -15 -303 -29 -303 -32 0 -3 110 -23 245 -44 134
-22 243 -41 242 -43 -4 -3 -523 -53 -556 -53 -15 0 -21 -4 -15 -9 5 -5 118
-26 251 -47 133 -21 241 -39 240 -40 -3 -3 -541 -54 -578 -55 -53 -1 20 -17
256 -55 132 -21 231 -40 220 -41 -31 -5 -576 -53 -593 -53 -51 0 26 -16 249
-51 140 -21 258 -41 263 -42 5 -2 -110 -13 -255 -26 -300 -26 -361 -32 -356
-37 2 -2 117 -21 256 -43 139 -22 254 -41 256 -43 3 -2 -114 -14 -258 -26
-279 -24 -358 -33 -342 -38 6 -2 124 -22 264 -44 140 -22 256 -41 257 -43 2
-2 -130 -20 -293 -41 -163 -21 -308 -42 -321 -45 -16 -4 68 -16 208 -30 363
-36 362 -31 19 -75 -167 -21 -310 -42 -317 -46 -7 -3 93 -17 223 -30 130 -12
250 -26 267 -29 20 -4 -75 -20 -276 -46 -168 -22 -306 -43 -306 -46 0 -3 109
-16 243 -29 133 -13 248 -26 254 -29 7 -4 -125 -24 -292 -46 -168 -22 -301
-42 -297 -46 4 -3 118 -17 255 -30 136 -12 247 -26 247 -29 0 -3 -136 -24
-301 -45 -185 -24 -294 -42 -283 -47 11 -4 138 -26 283 -48 233 -35 284 -40
440 -40 l176 0 61 118 60 117 124 3 c68 1 129 1 136 -2 8 -3 6 -32 -7 -113
-10 -59 -19 -111 -19 -115 0 -5 70 -8 155 -8 l154 0 10 38 c6 20 69 291 140
602 71 311 154 670 184 798 l53 232 -210 -1 c-132 -1 -325 -11 -513 -27z m181
-859 c-24 -130 -20 -123 -59 -123 l-35 0 50 100 c28 55 52 100 54 100 2 0 -3
-35 -10 -77z"/>
</g>
</svg>
